<svg width="25.000000" height="24.999420" viewBox="0 0 25 24.9994" fill="none" xmlns="http://www.w3.org/2000/svg" xmlns:xlink="http://www.w3.org/1999/xlink">
	<desc>
			Created with Pixso.
	</desc>
	<defs/>
	<path id="path" d="M12.5 0C9.21 -0.04 6.06 1.29 3.71 3.69C1.37 6.09 0.03 9.37 0 12.81C0.01 15.52 0.84 18.16 2.38 20.34C3.91 22.53 6.07 24.15 8.54 24.97C9.16 25.09 9.39 24.7 9.39 24.35C9.39 24.01 9.39 23.25 9.39 22.18C5.91 22.95 5.18 20.46 5.18 20.46C4.95 19.68 4.45 19.02 3.79 18.59C2.65 17.8 3.88 17.81 3.88 17.81C4.27 17.87 4.65 18.01 4.98 18.24C5.31 18.47 5.59 18.78 5.79 19.13C6.14 19.77 6.72 20.24 7.4 20.44C8.08 20.64 8.81 20.55 9.43 20.19C9.49 19.54 9.77 18.93 10.22 18.48C7.45 18.16 4.54 17.06 4.54 12.15C4.52 10.87 4.97 9.63 5.8 8.69C5.42 7.59 5.47 6.38 5.93 5.31C5.93 5.31 6.98 4.97 9.34 6.62C11.38 6.05 13.54 6.05 15.59 6.62C17.97 4.97 19 5.31 19 5.31C19.45 6.38 19.5 7.59 19.12 8.69C19.97 9.61 20.45 10.84 20.45 12.13C20.45 17.05 17.52 18.13 14.77 18.45C15.07 18.76 15.3 19.13 15.45 19.54C15.6 19.96 15.66 20.4 15.62 20.83L15.62 24.34C15.62 24.34 15.85 25.09 16.47 24.96C18.94 24.13 21.09 22.51 22.62 20.33C24.15 18.15 24.98 15.51 25 12.81C24.96 9.37 23.62 6.09 21.28 3.69C18.93 1.29 15.78 -0.04 12.5 0Z" fill="#FFFFFF" fill-opacity="1.000000" fill-rule="nonzero"/>
</svg>
