<svg width="30.000183" height="17.000000" viewBox="0 0 30.0002 17" fill="none" xmlns="http://www.w3.org/2000/svg" xmlns:xlink="http://www.w3.org/1999/xlink">
	<desc>
			Created with Pixso.
	</desc>
	<defs/>
	<path id="path" d="M29.31 1.15C29.52 0.48 29.31 0 28.31 0L25.03 0C24.2 0 23.81 0.42 23.6 0.88C23.6 0.88 21.94 4.76 19.57 7.28C18.81 8.01 18.46 8.25 18.04 8.25C17.83 8.25 17.52 8.01 17.52 7.35L17.52 1.15C17.52 0.35 17.29 0 16.59 0L11.44 0C10.91 0 10.6 0.36 10.6 0.72C10.6 1.47 11.78 1.64 11.9 3.77L11.9 8.38C11.9 9.39 11.71 9.57 11.3 9.57C10.18 9.57 7.48 5.67 5.87 1.21C5.56 0.35 5.24 0 4.4 0L1.12 0C0.18 0 0 0.42 0 0.88C0 1.71 1.11 5.82 5.18 11.27C7.89 14.98 11.71 17 15.19 17C17.27 17 17.53 16.55 17.53 15.78L17.53 12.97C17.53 12.07 17.73 11.9 18.39 11.9C18.87 11.9 19.71 12.13 21.66 13.92C23.88 16.04 24.25 17 25.5 17L28.78 17C29.72 17 30.19 16.55 29.92 15.67C29.62 14.79 28.56 13.51 27.15 12C26.39 11.13 25.24 10.2 24.89 9.74C24.4 9.14 24.54 8.88 24.89 8.35C24.89 8.35 28.89 2.97 29.31 1.15Z" fill="#FFFFFF" fill-opacity="1.000000" fill-rule="evenodd"/>
</svg>
